# xmcd CD database file
#
# Track frame offsets:
#	150
#	9895
#	22937
#	32695
#	45167
#	56447
#	73580
#	85812
#	102440
#	114122
#	128225
#	141097
#	151647
#	168377
#	186527
#	196725
#	209422
#	220620
#	233975
#	247930
#
# Disc length: 3453 seconds
#
# Revision: 0
# Processed by: cddbd v1.5.2PL0 Copyright (c) Steve Scherf et al.
# Submitted via: CDex 1.70beta2
#
DISCID=f90d7b14
DTITLE=Various Artist - It's Trad Jazz - Disc 1
DYEAR=1900
DGENRE=Jazz
TTITLE0=Terry Lightfoot - Tavern In The Town
TTITLE1=Humphrey Lyttelton - Coffee Grinder
TTITLE2=Doug Richfords London Jazzmen Feat. Nat Gonella - Yip-I-Addy-I-Ay
TTITLE3=Acker Bilk - Maria Elena
TTITLE4=The Joe Daniels Jazz Group - Little Brown Jug
TTITLE5=Alex Welsh - Lazy River
TTITLE6=Ken Colyer - Maryland My Maryland
TTITLE7=Terry Lightfoot - Snag It
TTITLE8=The Joe Daniels Jazz Group - Mama Don't Allow It
TTITLE9=Chris Barber's Jazz Band - L'il Liza Jane
TTITLE10=Alex Welsh - Tansy
TTITLE11=Doug Richfords London Jazzmen Feat. Nat Gonella - On Sunday I Go Sailing
TTITLE12=Dick Charlesworth - Wrap Your Troubles In Dreams
TTITLE13=Humphrey Liyttelton - Royal Garden Blues
TTITLE14=Chris Barber's Jazz Band - Mack The Knife
TTITLE15=The Joe Daniels Jazz Group - Crazy Rhythm
TTITLE16=Acker Bilk - That's My Home
TTITLE17=Dick Charlesworth - Full House
TTITLE18=Humphrey Lyttelton - Ace In The Hole
TTITLE19=Nat Gonella - Show Me The Way To Go Home
EXTD=
EXTT0=
EXTT1=
EXTT2=
EXTT3=
EXTT4=
EXTT5=
EXTT6=
EXTT7=
EXTT8=
EXTT9=
EXTT10=
EXTT11=
EXTT12=
EXTT13=
EXTT14=
EXTT15=
EXTT16=
EXTT17=
EXTT18=
EXTT19=
PLAYORDER=
